<svg version="1.1" id="Layer_1" xmlns="http://www.w3.org/2000/svg" xmlns:xlink="http://www.w3.org/1999/xlink" x="0px" y="0px"
	 width="100%" viewBox="0 0 140 140" enable-background="new 0 0 140 140" xml:space="preserve">
<path fill="#FFFEFE" opacity="1.000000" stroke="none" 
	d="
M84.000000,141.000000 
	C56.024570,141.000000 28.549137,141.000000 1.036853,141.000000 
	C1.036853,94.399620 1.036853,47.799202 1.036853,1.099392 
	C47.558521,1.099392 94.117325,1.099392 140.838074,1.099392 
	C140.838074,47.666214 140.838074,94.333054 140.838074,141.000000 
	C122.132927,141.000000 103.316460,141.000000 84.000000,141.000000 
M82.202255,95.465256 
	C82.202255,99.091316 82.202255,102.717369 82.202255,106.053329 
	C87.945465,106.053329 93.298080,106.053329 98.783928,106.053329 
	C98.783928,82.001289 98.824898,57.036388 98.699112,32.072327 
	C98.689949,30.252884 97.707489,27.024210 96.774696,26.868809 
	C92.775528,26.202555 88.504921,25.867117 84.600517,26.685760 
	C83.355904,26.946724 82.266197,31.143557 82.246880,33.548615 
	C82.083778,53.857124 82.185310,74.167755 82.202255,95.465256 
M61.117813,32.694275 
	C60.648979,30.675247 60.458218,27.045715 59.664440,26.908659 
	C55.668682,26.218750 51.398697,25.872570 47.486958,26.678019 
	C46.269852,26.928627 45.220387,31.159237 45.202374,33.576077 
	C45.028896,56.853825 45.089527,80.133339 45.098167,103.412346 
	C45.098515,104.350006 45.248291,105.287621 45.280666,105.666374 
	C50.684570,105.666374 55.772919,105.666374 61.099503,105.666374 
	C61.099503,81.847839 61.099503,57.748470 61.117813,32.694275 
M29.131042,98.215080 
	C28.703602,94.472450 28.105127,90.739792 27.886223,86.985001 
	C27.494867,80.272316 26.873047,73.718636 20.583916,69.136864 
	C28.039404,63.598072 27.793043,55.769344 27.966480,48.121861 
	C28.160271,39.576874 27.226044,39.593952 35.790138,37.934780 
	C36.055107,37.883442 36.260834,37.526306 36.451443,37.351032 
	C36.451443,34.357670 36.451443,31.420273 36.451443,28.136551 
	C34.043095,28.136551 31.904642,27.948956 29.809072,28.169258 
	C21.069527,29.088026 17.478783,32.921928 17.051865,41.706429 
	C16.898554,44.860992 16.962713,48.025536 16.852957,51.182930 
	C16.628468,57.640900 15.792789,63.720325 7.704341,64.422409 
	C6.905399,72.076004 7.038434,71.890213 12.639237,75.900703 
	C14.302666,77.091805 15.650833,79.540565 15.985529,81.601135 
	C16.700104,86.000427 16.751221,90.519447 16.907068,94.995239 
	C17.334499,107.270676 24.099678,112.331352 36.551361,109.344353 
	C36.551361,106.478012 36.551361,103.548264 36.551361,100.678825 
	C34.131275,100.014854 31.933701,99.411919 29.131042,98.215080 
M127.245064,55.744930 
	C127.127258,51.758705 126.971230,47.773174 126.898773,43.786125 
	C126.674095,31.422243 119.691521,26.013500 107.297279,28.646082 
	C107.297279,31.717833 107.297279,34.789581 107.297279,37.802490 
	C115.428719,39.147121 115.838303,39.640255 115.922363,47.817520 
	C115.937744,49.313343 116.025803,50.810081 115.992599,52.304447 
	C115.846733,58.869270 117.401634,64.748329 123.175148,69.162888 
	C115.580948,74.774811 115.908913,82.731499 115.867226,90.581863 
	C115.824608,98.605583 115.221252,99.304588 107.298462,100.509483 
	C107.298462,103.540123 107.298462,106.609276 107.298462,110.013290 
	C109.479935,110.013290 111.433487,110.067787 113.383133,110.003784 
	C121.512032,109.736908 125.200584,106.687439 126.410881,98.592430 
	C126.996559,94.675133 126.825653,90.640961 126.942551,86.658096 
	C127.195740,78.031456 128.014679,76.808464 135.947662,73.696510 
	C135.947662,70.679985 135.947662,67.575630 135.947662,64.192657 
	C131.232239,63.679665 128.061859,61.468086 127.245064,55.744930 
M63.997231,102.153290 
	C64.126221,103.618591 64.255203,105.083900 64.384193,106.549202 
	C68.238968,99.638901 73.907806,104.599312 78.801285,103.567650 
	C79.196732,100.734642 79.923683,97.839119 79.950691,94.937088 
	C80.074440,81.636009 80.017830,68.333084 79.995453,55.030865 
	C79.978569,44.988678 79.665535,44.820457 69.720207,44.941856 
	C65.529236,44.993011 63.866741,46.449078 63.919472,50.850437 
	C64.120651,67.642105 63.999245,84.437637 63.997231,102.153290 
z"/>
<path fill="#FDCF73" opacity="1.000000" stroke="none" 
	d="
M82.204788,94.971497 
	C82.185310,74.167755 82.083778,53.857124 82.246880,33.548615 
	C82.266197,31.143557 83.355904,26.946724 84.600517,26.685760 
	C88.504921,25.867117 92.775528,26.202555 96.774696,26.868809 
	C97.707489,27.024210 98.689949,30.252884 98.699112,32.072327 
	C98.824898,57.036388 98.783928,82.001289 98.783928,106.053329 
	C93.298080,106.053329 87.945465,106.053329 82.202255,106.053329 
	C82.202255,102.717369 82.202255,99.091316 82.204788,94.971497 
z"/>
<path fill="#FCCF72" opacity="1.000000" stroke="none" 
	d="
M61.108658,33.171688 
	C61.099503,57.748470 61.099503,81.847839 61.099503,105.666374 
	C55.772919,105.666374 50.684570,105.666374 45.280666,105.666374 
	C45.248291,105.287621 45.098515,104.350006 45.098167,103.412346 
	C45.089527,80.133339 45.028896,56.853825 45.202374,33.576077 
	C45.220387,31.159237 46.269852,26.928627 47.486958,26.678019 
	C51.398697,25.872570 55.668682,26.218750 59.664440,26.908659 
	C60.458218,27.045715 60.648979,30.675247 61.108658,33.171688 
z"/>
<path fill="#E86034" opacity="1.000000" stroke="none" 
	d="
M29.433586,98.512039 
	C31.933701,99.411919 34.131275,100.014854 36.551361,100.678825 
	C36.551361,103.548264 36.551361,106.478012 36.551361,109.344353 
	C24.099678,112.331352 17.334499,107.270676 16.907068,94.995239 
	C16.751221,90.519447 16.700104,86.000427 15.985529,81.601135 
	C15.650833,79.540565 14.302666,77.091805 12.639237,75.900703 
	C7.038434,71.890213 6.905399,72.076004 7.704341,64.422409 
	C15.792789,63.720325 16.628468,57.640900 16.852957,51.182930 
	C16.962713,48.025536 16.898554,44.860992 17.051865,41.706429 
	C17.478783,32.921928 21.069527,29.088026 29.809072,28.169258 
	C31.904642,27.948956 34.043095,28.136551 36.451443,28.136551 
	C36.451443,31.420273 36.451443,34.357670 36.451443,37.351032 
	C36.260834,37.526306 36.055107,37.883442 35.790138,37.934780 
	C27.226044,39.593952 28.160271,39.576874 27.966480,48.121861 
	C27.793043,55.769344 28.039404,63.598072 20.583916,69.136864 
	C26.873047,73.718636 27.494867,80.272316 27.886223,86.985001 
	C28.105127,90.739792 28.703602,94.472450 29.433586,98.512039 
z"/>
<path fill="#E95F32" opacity="1.000000" stroke="none" 
	d="
M127.337425,56.162540 
	C128.061859,61.468086 131.232239,63.679665 135.947662,64.192657 
	C135.947662,67.575630 135.947662,70.679985 135.947662,73.696510 
	C128.014679,76.808464 127.195740,78.031456 126.942551,86.658096 
	C126.825653,90.640961 126.996559,94.675133 126.410881,98.592430 
	C125.200584,106.687439 121.512032,109.736908 113.383133,110.003784 
	C111.433487,110.067787 109.479935,110.013290 107.298462,110.013290 
	C107.298462,106.609276 107.298462,103.540123 107.298462,100.509483 
	C115.221252,99.304588 115.824608,98.605583 115.867226,90.581863 
	C115.908913,82.731499 115.580948,74.774811 123.175148,69.162888 
	C117.401634,64.748329 115.846733,58.869270 115.992599,52.304447 
	C116.025803,50.810081 115.937744,49.313343 115.922363,47.817520 
	C115.838303,39.640255 115.428719,39.147121 107.297279,37.802490 
	C107.297279,34.789581 107.297279,31.717833 107.299774,28.642818 
	C119.691521,26.013500 126.674095,31.422243 126.898773,43.786125 
	C126.971230,47.773174 127.127258,51.758705 127.337425,56.162540 
z"/>
<path fill="#F7F7E9" opacity="1.000000" stroke="none" 
	d="
M63.997780,101.692505 
	C63.999245,84.437637 64.120651,67.642105 63.919472,50.850437 
	C63.866741,46.449078 65.529236,44.993011 69.720207,44.941856 
	C79.665535,44.820457 79.978569,44.988678 79.995453,55.030865 
	C80.017830,68.333084 80.074440,81.636009 79.950691,94.937088 
	C79.923683,97.839119 79.196732,100.734642 78.801285,103.567650 
	C73.907806,104.599312 68.238968,99.638901 64.384193,106.549202 
	C64.255203,105.083900 64.126221,103.618591 63.997780,101.692505 
z"/>
</svg>